<?xml version="1.0" standalone="no"?>
<!DOCTYPE svg PUBLIC "-//W3C//DTD SVG 20010904//EN"
 "http://www.w3.org/TR/2001/REC-SVG-20010904/DTD/svg10.dtd">
<svg version="1.0" xmlns="http://www.w3.org/2000/svg"
 width="700.000000pt" height="700.000000pt" viewBox="0 0 700.000000 700.000000"
 preserveAspectRatio="xMidYMid meet">
<metadata>
Created by potrace 1.11, written by Peter Selinger 2001-2013
</metadata>
<g transform="translate(0.000000,700.000000) scale(0.100000,-0.100000)"
fill="#000000" stroke="none">
<path d="M3398 6415 c-2 -2 -34 -5 -73 -9 -218 -19 -446 -88 -645 -194 -465
-246 -786 -680 -896 -1209 -23 -110 -27 -154 -28 -313 -1 -200 4 -252 35 -398
52 -237 160 -469 323 -692 l25 -35 -44 -170 c-59 -230 -95 -368 -166 -639 -33
-125 -62 -236 -64 -245 -2 -9 -17 -68 -33 -131 -17 -63 -51 -196 -77 -295 -25
-99 -61 -236 -80 -305 -19 -69 -52 -197 -75 -285 -23 -88 -66 -257 -97 -375
-46 -178 -54 -225 -50 -272 15 -173 180 -293 353 -256 23 5 126 58 230 118
103 61 191 110 196 110 4 0 8 5 8 10 0 6 5 10 12 10 7 0 28 11 47 24 20 13
185 110 366 216 479 280 546 320 587 346 21 13 40 24 43 24 2 0 34 18 70 40
36 22 72 40 80 40 8 0 70 -31 138 -68 67 -38 148 -83 180 -100 31 -18 83 -46
115 -64 31 -17 111 -61 177 -98 66 -37 143 -79 170 -94 28 -15 57 -31 65 -36
18 -11 145 -81 245 -135 39 -21 82 -46 97 -57 14 -10 29 -18 33 -18 3 0 111
-58 239 -130 128 -71 251 -133 273 -138 185 -42 356 80 370 262 4 49 -3 89
-32 201 -20 77 -39 147 -40 155 -2 8 -19 76 -39 150 -19 74 -57 224 -85 332
-28 109 -67 260 -87 335 -19 76 -37 145 -39 153 -5 23 -163 640 -250 975 -106
409 -108 415 -90 438 71 98 146 220 190 312 50 104 117 287 128 351 3 16 10
54 16 84 23 123 25 152 25 320 0 186 -4 231 -36 378 -28 132 -71 260 -129 379
-62 129 -96 185 -180 298 -323 433 -820 688 -1366 699 -73 2 -134 2 -135 1z
m283 -596 c146 -28 209 -49 325 -105 350 -168 592 -497 648 -881 12 -87 14
-292 2 -331 -3 -9 -8 -33 -11 -52 -49 -294 -244 -587 -502 -753 -153 -99 -311
-160 -478 -186 -79 -12 -317 -7 -380 9 -27 6 -61 14 -74 16 -103 20 -333 130
-399 192 -7 6 -17 12 -22 12 -5 0 -50 42 -102 93 -233 231 -351 511 -352 832
0 127 7 183 38 306 78 302 301 580 584 727 86 45 230 98 292 108 19 4 55 10
80 14 60 11 296 10 351 -1z m-954 -2724 c339 -165 693 -215 1063 -151 159 28
320 82 474 158 50 24 83 35 89 29 5 -5 15 -35 22 -68 7 -32 27 -110 44 -173
17 -63 49 -185 72 -270 22 -85 49 -186 59 -225 10 -38 31 -115 45 -170 15 -55
55 -208 90 -340 35 -132 75 -281 88 -332 l25 -92 -32 16 c-17 9 -67 36 -111
61 -44 25 -107 60 -140 77 -33 18 -96 52 -140 77 -207 117 -737 409 -794 437
-49 25 -76 33 -125 33 -77 1 -119 -13 -221 -72 -169 -99 -554 -326 -775 -455
-272 -161 -264 -157 -249 -119 6 16 12 36 14 44 11 50 71 287 210 835 86 341
158 625 159 630 9 42 31 115 35 115 3 0 47 -20 98 -45z"/>
</g>
</svg>
